<svg 
 xmlns="http://www.w3.org/2000/svg"
 xmlns:xlink="http://www.w3.org/1999/xlink"
 width="6.778in" height="1.361in">
<defs>
<linearGradient id="PSgrad_0" x1="0%" x2="100%" y1="0%" y2="0%">
  <stop offset="0%" stop-color="rgb(131,123,123)" stop-opacity="1" />
  <stop offset="25%" stop-color="rgb(169,163,159)" stop-opacity="1" />
  <stop offset="50%" stop-color="rgb(191,187,183)" stop-opacity="1" />
  <stop offset="75%" stop-color="rgb(204,203,198)" stop-opacity="1" />
  <stop offset="100%" stop-color="rgb(220,222,217)" stop-opacity="1" />
</linearGradient>

</defs>
<path fill-rule="evenodd"  fill="rgb(102, 102, 102)"
 d="M475.718,43.254 L295.259,43.254 C295.315,45.453 295.947,64.638 300.967,70.454 C306.295,76.627 320.390,91.011 320.390,91.011 C320.390,91.011 320.949,94.859 319.247,96.721 C317.545,98.583 312.392,97.863 312.392,97.863 L176.520,97.863 C176.520,97.863 171.367,98.583 169.665,96.721 C167.962,94.859 168.522,91.011 168.522,91.011 C168.522,91.011 182.617,76.627 187.945,70.454 C192.965,64.638 193.597,45.453 193.653,43.254 L12.282,43.254 C5.499,43.254 -0.000,37.780 -0.000,31.027 L-0.000,0.033 L488.000,0.033 L488.000,31.027 C488.000,37.780 482.501,43.254 475.718,43.254 Z"/>
<path fill="url(#PSgrad_0)"
 d="M475.718,43.254 L295.259,43.254 C295.315,45.453 295.947,64.638 300.967,70.454 C306.295,76.627 320.390,91.011 320.390,91.011 C320.390,91.011 320.949,94.859 319.247,96.721 C317.545,98.583 312.392,97.863 312.392,97.863 L176.520,97.863 C176.520,97.863 171.367,98.583 169.665,96.721 C167.962,94.859 168.522,91.011 168.522,91.011 C168.522,91.011 182.617,76.627 187.945,70.454 C192.965,64.638 193.597,45.453 193.653,43.254 L12.282,43.254 C5.499,43.254 -0.000,37.780 -0.000,31.027 L-0.000,0.033 L488.000,0.033 L488.000,31.027 C488.000,37.780 482.501,43.254 475.718,43.254 Z"/>
</svg>